<?xml version="1.0" encoding="utf-8"?>
<!-- Generator: Adobe Illustrator 24.1.1, SVG Export Plug-In . SVG Version: 6.00 Build 0)  -->
<svg version="1.1" id="katman_1" xmlns="http://www.w3.org/2000/svg" xmlns:xlink="http://www.w3.org/1999/xlink" x="0px" y="0px"
	 viewBox="0 0 600 600" style="enable-background:new 0 0 600 600;" xml:space="preserve">
<style type="text/css">
	.st0{fill:url(#SVGID_1_);}
</style>
<linearGradient id="SVGID_1_" gradientUnits="userSpaceOnUse" x1="300" y1="593.1229" x2="300" y2="11.0135">
	<stop  offset="0" style="stop-color:#7000AA"/>
	<stop  offset="0.3883" style="stop-color:#5200E9"/>
	<stop  offset="0.5361" style="stop-color:#482AF4"/>
	<stop  offset="0.6584" style="stop-color:#4146FC"/>
	<stop  offset="0.7291" style="stop-color:#3F51FF"/>
	<stop  offset="0.8946" style="stop-color:#379BFF"/>
	<stop  offset="1" style="stop-color:#32C5FF"/>
</linearGradient>
<path class="st0" d="M331.32,316.34c8.41-7.04,20.93-6.12,28.69,1.64l87.76,87.76c4.11,4.11,6.17,9.49,6.17,14.89
	c0,5.83-2.41,11.65-7.21,15.86c-8.39,7.36-21.19,6.56-29.08-1.33l-87.76-87.76C321.23,338.73,321.7,324.38,331.32,316.34z
	 M302.03,298.89c17.02-1.02,30.89-16.41,30.89-33.46l0-228.52C332.92,18.74,318.19,4,300,4c-9.1,0-17.32,3.69-23.28,9.65
	c-5.95,5.95-9.64,14.19-9.64,23.27v229.11C267.08,284.89,282.92,300.04,302.03,298.89z M503.66,153.49l22.37-19.34
	c11.44-9.89,12.05-26.73,1.36-37.42l0,0c-10.69-10.69-28.8-11.35-40.23-1.46l-23.43,20.26c-17.16-13.26-35.95-24.5-56.03-33.34
	c-22.17-9.76-47.05,6.72-47.05,30.94v0c0,13.29,7.79,25.41,19.95,30.76c83.94,36.93,137.99,129.68,114.83,230.98
	c-16.91,73.98-75.19,131.95-149.25,148.56c-130.72,29.32-247-69.83-247-195.63c0-82.1,49.53-152.85,120.28-183.94
	c12.14-5.34,19.88-17.47,19.88-30.73v0c0-24.27-24.94-40.69-47.15-30.9C97.4,124,31.19,219.12,31.8,329.33
	c0.82,145.51,118.71,264.52,264.21,266.64c149.7,2.18,272.18-118.96,272.18-268.17C568.2,261.31,543.87,200.4,503.66,153.49z"/>
</svg>
